<?xml version="1.0" encoding="UTF-8" standalone="no"?>
<svg width="256" height="256" fill="none" viewBox="0 0 256 256" version="1.1" id="svg2"
    xmlns="http://www.w3.org/2000/svg" xmlns:svg="http://www.w3.org/2000/svg">
    <rect width="256" height="256" fill="#F4F2ED" rx="60" id="rect1" x="0" y="0"
        style="display:inline;mix-blend-mode:normal" />
    <path fill="#000" fill-rule="evenodd"
        d="m 198.13,51.5 c -0.21,-0.03 -0.46,-0.05 -0.71,-0.05 -3.15,0 -5.79,3.15 -6.43,7.35 l -0.01,0.06 c 0.95,1.15 2.2,1.86 3.56,1.86 3.03,0 5.5,-3.49 5.5,-7.8 0,-0.47 -0.03,-0.93 -0.09,-1.38 l 0.01,0.04 c -0.45,-0.06 -0.96,-0.1 -1.48,-0.1 -0.12,0 -0.25,0 -0.37,0.01 z m 15.74,-3.18 c -0.14,0.05 -0.32,0.32 -0.54,0.88 -1.6,3.67 -2.54,8.12 -2.54,12.88 0,0.03 0,0.07 0,0.1 v -0.01 c 0.02,1.77 0.61,0.97 0.62,-0.16 0.02,-4.67 0.97,-9.03 2.59,-12.72 l -0.04,0.1 c 0.2,-0.68 0.14,-1.19 -0.09,-1.08 z m -0.81,-0.99 c -0.13,0.04 -0.34,0.28 -0.59,0.82 -2.04,3.92 -3.45,8.68 -3.95,13.85 l -0.01,0.16 c -0.1,1.75 0.56,1.05 0.63,-0.09 0.52,-5.2 1.91,-9.83 3.97,-13.73 l -0.04,0.08 c 0.24,-0.65 0.21,-1.16 -0.02,-1.08 z m -0.75,-1.3 c -0.13,0.03 -0.35,0.23 -0.64,0.74 -2.64,4.05 -4.65,8.99 -5.8,14.45 l -0.05,0.26 c -0.21,1.73 0.49,1.12 0.62,-0.01 1.18,-5.6 3.19,-10.41 5.83,-14.37 l -0.01,0.02 c 0.28,-0.62 0.27,-1.13 0.05,-1.09 z m -0.61,-1.44 c -0.29,0.1 -0.53,0.31 -0.71,0.61 v 0 c -3.12,4.38 -5.64,9.61 -7.39,15.41 l -0.09,0.32 c -0.38,1.68 0.37,1.19 0.62,0.1 1.85,-5.97 4.34,-11.06 7.4,-15.36 v 0 c 0.34,-0.56 0.39,-1.07 0.15,-1.08 z m 1.15,-2.13 c 0.68,3.32 1.76,4.85 6.41,5.45 -1.02,7.58 -4.37,13.82 -8.93,17.27 l -0.09,0.06 c -4.3,3.58 -7.9,8.12 -10.79,13.48 l -0.07,0.13 c -4.46,12.76 -8.43,27.72 -11.32,43.3 l -0.27,1.7 c -2.63,16.57 -8.79,30.7 -17.29,41.1 l -0.07,0.08 c -1.14,-3.9 1.29,-6.15 0.23,-9.7 -2.05,7.18 -4.07,13.1 -6.32,18.79 l 0.31,-0.83 c -5.73,16.61 -16.55,28.62 -29.5,31.98 l -0.25,0.05 c 8.15,-13.51 13.44,-30.79 14.44,-49.76 l 0.01,-0.29 c -3.05,0.94 -3.29,12.59 -8.22,16.87 -0.4,0.02 -0.87,0.02 -1.33,0.02 -3.76,0 -7.46,-0.48 -11.04,-1.4 l 0.38,0.08 c -4.56,-1.14 -9.82,-1.8 -15.18,-1.8 -8.4,0 -16.52,1.6 -24.25,4.61 l 0.64,-0.22 c -10.07,7.12 -18.28,13.78 -26.22,21 l 1.12,-0.95 c -4.97,3.5 -10.83,5.55 -17.02,5.55 -1.71,0 -3.39,-0.16 -5.05,-0.46 l 0.2,0.03 c -1.32,-2.53 7.64,-5.8 7.14,-11.32 -4.09,-0.62 -6.47,0.77 -10.02,-1.51 0.43,-1.06 1,-1.92 1.68,-2.58 l 0.02,-0.02 c 6.51,-6.38 24.99,-1.51 29.94,-8.41 2.61,-3.85 4.97,-8.12 6.99,-12.7 l 0.13,-0.33 c 2.06,-4.59 4.46,-8.52 7.22,-11.89 l 0.05,-0.06 c 1.17,-1.35 3,-3.69 4.36,-5.01 5.2,-4.88 11.2,-9.03 17.55,-12.03 l 0.54,-0.23 c 8.95,-4.47 18,-5.97 27.55,-11.14 6.38,-3.02 11.91,-7.01 16.94,-11.97 l -0.21,0.2 c 1.55,-1.67 2.92,-3.32 4.22,-5.06 l -0.02,0.03 c 16.93,-23.71 18,-56 41.29,-59.39 2.82,-0.42 5.13,-0.28 7.23,-0.37 0.08,0 0.17,0 0.27,0 2.42,0 4.7,-0.87 6.69,-2.42 l -0.07,0.05 z m 4.37,-4.81 c -2.81,0.14 -2,1.94 -8.08,4.07 -7.48,0.86 -14.36,2.54 -21.01,5.04 l 0.83,-0.26 c -17.29,10.28 -20.09,50.02 -40.68,65.39 -11.34,7.75 -24.56,14.21 -38.37,18.46 l -1.2,0.31 C 99.77,134.93 92.04,141.13 85.32,149 l 0.12,-0.14 c -5.62,6.87 -6.99,13.55 -12.86,22.18 -5.96,11.49 -28.55,1.27 -34.36,15.69 1.96,2 4.41,3.19 7.05,3.19 1.13,0 2.22,-0.22 3.25,-0.62 l -0.09,0.03 c -1.11,2.99 -8.19,6.93 -6.91,11.34 2.24,0.5 4.82,0.79 7.45,0.79 8.84,0 17.13,-3.23 24.35,-8.9 l -0.26,0.18 c 6.75,-6.09 14.58,-10.92 22.93,-13.9 l 0.56,-0.16 c 0.16,0 0.35,0 0.55,0 15.78,0 31.21,2.14 46.15,6.23 l -1.52,-0.35 c -3.48,8.79 -6.99,16.27 -10.84,23.37 l 0.23,-0.45 c -1.16,1.77 0.99,3.32 4.95,2.26 6.61,-1.96 12.47,-5.52 17.63,-10.43 l -0.18,0.16 c 5.86,-6.29 10.89,-13.56 15.08,-21.76 l 0.15,-0.29 c 4.91,11.17 22.22,13.63 25.77,3.97 -6.61,-3.97 -8.02,-24.63 -5.75,-33.54 2.38,-8.55 4.7,-19.13 6.52,-29.99 l 0.24,-1.69 c 1.95,-10.06 3.15,-25.41 5.47,-33.27 2.78,-9.76 8.18,-12.82 12.24,-18 4.83,-4.46 7.97,-12.08 7.97,-20.74 0,-0.22 0,-0.43 -0.01,-0.64 v 0.03 c -0.05,-3.85 -1.45,-5.98 -4,-5.88 z"
        clip-rule="evenodd" id="path1"
        style="display:inline;fill:#000000;fill-opacity:1;stroke:none;stroke-width:7.26753;stroke-opacity:1;image-rendering:auto" />
    <defs id="defs2" />
</svg>